<?xml version="1.0" encoding="UTF-8"?>
<svg id="Layer_2" data-name="Layer 2" xmlns="http://www.w3.org/2000/svg" xmlns:xlink="http://www.w3.org/1999/xlink" viewBox="0 0 167.4 143.29">
  <defs>
    <style>
      .cls-1 {
        fill: none;
      }

      .cls-2 {
        fill: #7c7c7c;
      }

      .cls-3 {
        fill: url(#linear-gradient);
      }

      .cls-4 {
        fill: #fff;
      }

      .cls-5 {
        clip-path: url(#clippath);
      }
    </style>
    <linearGradient id="linear-gradient" x1="28.35" y1="999.82" x2="134.86" y2="893.33" gradientTransform="translate(0 -900.82)" gradientUnits="userSpaceOnUse">
      <stop offset="0" stop-color="#f0f"/>
      <stop offset=".5" stop-color="#00ffed"/>
      <stop offset=".55" stop-color="#0cffed"/>
      <stop offset=".63" stop-color="#2dfff0"/>
      <stop offset=".73" stop-color="#62fff3"/>
      <stop offset=".87" stop-color="#acfff9"/>
      <stop offset="1" stop-color="#fff"/>
    </linearGradient>
    <clipPath id="clippath">
      <rect class="cls-1" x="65.92" y="85.88" width="35.57" height="29.59"/>
    </clipPath>
  </defs>
  <g id="Layer_2-2" data-name="Layer 2">
    <g>
      <g id="uuid-e272a123-edbb-430a-a05a-918baa042e60" data-name="Layer 2-2">
        <g id="Layer_1-2" data-name="Layer 1-2">
          <path class="cls-3" d="M3.57,46.04h10.5l12.15,21.84,12.04-21.84h10.39v28.18h-6.82l.27-23.28h-.11l-12.79,23.28h-6.23l-12.73-23.28h-.11l.27,23.28H3.57v-28.18ZM64.52,46.04h8.63l15.45,28.18h-8.09l-3.62-6.98h-16.31l-3.57,6.98h-7.88l15.45-28.18s-.06,0-.06,0ZM74.69,62.82l-5.91-11.88-6.02,11.88h11.93ZM103.24,59.73l-14.11-13.64h9.06l9.54,9.8,9.7-9.8h8.79l-14.17,13.64,14.17,14.54h-9.22l-9.43-10.39-9.48,10.39h-8.95l14.11-14.54h0ZM140.86,59.73l-14.11-13.64h9.06l9.54,9.8,9.7-9.8h8.79l-14.17,13.64,14.17,14.54h-9.22l-9.43-10.39-9.48,10.39h-8.95l14.11-14.54h0ZM24.28,0c4.69,0,14.06.86,14.88,9.67h-6.9c-.21-2.34-2.34-4.9-7.67-4.9-4.27,0-7.08,1.32-7.08,4.17,0,7.16,22.67.3,22.67,13.3,0,7.84-8.14,9.89-14.62,9.89-10.96,0-15.34-4.31-15.43-10.7h6.9c.17,4.01,3.49,5.93,8.74,5.93,3.88,0,7.5-1.15,7.5-4.48,0-7.54-22.42-.98-22.42-13.47C10.85,2.64,16.86,0,24.27,0c0,0,0,0,0,0ZM43.28,8.7h5.89v3.24h.08c1.75-2.73,5.11-3.84,8.65-3.84,8.61,0,12.36,6.26,12.36,11.97s-3.75,12.07-12.36,12.07c-4.69,0-8.23-2.6-8.65-3.96h-.08v11.72h-5.89s0-31.2,0-31.2ZM48.91,20.08c0,3.84,2.09,7.54,7.59,7.54s7.63-3.71,7.63-7.54-2.09-7.46-7.63-7.46-7.59,3.71-7.59,7.46ZM97.41,26.13c0,1.23.9,1.28,1.28,1.28.55,0,1.45-.04,1.91-.13v4.13c-1.15.21-2.17.51-4.17.51-3.84,0-4.27-2.05-4.43-2.9-1.15,1.11-4.01,3.12-10.61,3.12-5.89,0-9.2-2.64-9.2-7.08,0-6.22,6.39-6.78,10.14-7.12,8.44-.81,9.34-1.11,9.34-2.85,0-2.6-2.98-3.24-6.39-3.24-3.88,0-5.97,1.23-6.18,3.75h-5.75c.86-5.93,5.24-7.76,11.93-7.76,11.81,0,12.15,4.64,12.15,7.59v10.7h0ZM91.52,20.03c-1.7.72-3.53.94-7.72,1.41-4.43.51-5.5,1.49-5.5,3.41,0,2.98,2.73,3.53,4.73,3.53,3.16,0,8.48-1.19,8.48-6.18v-2.17h0ZM121.42,16.63c-.43-2.34-2.9-4.27-6.26-4.27-5.46,0-7.84,3.71-7.84,7.63s2.13,7.63,7.2,7.63c4.56,0,5.79-1.79,7.04-4.99h6.14c-1.36,9.38-10.96,9.51-12.53,9.51-10.1,0-13.98-5.93-13.98-12.15,0-7.29,5.24-12.15,13.98-12.15,3.41,0,11.17,1.15,12.4,8.78h-6.15ZM135.95,21.48c.13,2.51,1.83,6.39,7.67,6.39,3.88,0,5.58-1.36,6.73-3.24h6.39c-1.28,2.51-4.35,7.5-12.96,7.5-10.19,0-13.98-5.93-13.98-11.93,0-7.54,5.58-12.36,13.59-12.36,10.02,0,13.85,6.18,13.85,12.79v.86h-21.31ZM151.12,17.73c-.72-4.52-4.73-5.89-7.63-5.89-2.73,0-6.57,1.28-7.54,5.89h15.17Z"/>
        </g>
      </g>
      <g>
        <path class="cls-4" d="M29.71,131.05v-7.18h5.38v.68h-4.63v2.43h4.4v.68h-4.4v3.38h-.74Z"/>
        <path class="cls-4" d="M35.58,131.05v-5.23h.74v1.2c.4-.9,1.07-1.36,2.02-1.36.15,0,.3.01.45.04v.76c-.23-.04-.46-.06-.68-.06-.48,0-.87.14-1.19.43-.4.36-.59.87-.59,1.55v2.66h-.74Z"/>
        <path class="cls-4" d="M38.91,128.43c0-.78.24-1.43.73-1.93.54-.56,1.28-.84,2.23-.84s1.7.28,2.24.84c.48.5.72,1.15.72,1.93s-.24,1.43-.72,1.93c-.54.56-1.29.84-2.24.84s-1.7-.28-2.23-.84c-.49-.5-.73-1.15-.73-1.93ZM39.65,128.43c0,.64.2,1.16.59,1.56.4.4.94.59,1.63.59s1.23-.2,1.63-.59c.4-.4.59-.91.59-1.56s-.2-1.16-.59-1.56c-.4-.4-.94-.59-1.63-.59s-1.23.2-1.63.59c-.4.4-.59.91-.59,1.56Z"/>
        <path class="cls-4" d="M53.9,131.05v-3.32c0-.96-.52-1.45-1.56-1.45-.56,0-1,.15-1.31.45s-.47.71-.47,1.23v3.09h-.74v-3.54c0-.36-.12-.64-.36-.86-.27-.24-.64-.36-1.13-.36-.55,0-.99.15-1.33.45-.35.33-.52.78-.52,1.37v2.94h-.74v-5.23h.74v.96h.02c.42-.75,1.11-1.13,2.07-1.13.54,0,.97.12,1.32.37.28.21.47.47.55.77.14-.29.38-.55.72-.77.4-.25.84-.37,1.33-.37.71,0,1.25.17,1.63.5.35.32.52.76.52,1.32v3.57h-.74Z"/>
        <path class="cls-4" d="M63.15,127.37h-.68c-.09-.41-.28-.7-.56-.86-.26-.15-.67-.22-1.24-.22-1.01,0-1.51.3-1.51.89,0,.27.12.45.37.55.23.1.75.2,1.57.31.84.11,1.42.26,1.73.45.36.21.53.57.53,1.06,0,.52-.21.93-.63,1.22s-1.04.44-1.85.44c-1.76,0-2.64-.6-2.64-1.8h.68c.07.44.24.74.53.91.28.17.76.26,1.43.26,1.16,0,1.74-.33,1.74-1,0-.27-.13-.47-.39-.59-.28-.13-.82-.24-1.61-.32-.81-.08-1.38-.23-1.71-.45-.33-.22-.49-.56-.49-1.02s.18-.84.55-1.12c.4-.29.96-.43,1.7-.43,1.56,0,2.39.57,2.48,1.71Z"/>
        <path class="cls-4" d="M68.73,129.18h.74c-.1.5-.32.92-.66,1.27-.48.51-1.14.76-1.98.76-.92,0-1.65-.26-2.18-.77-.51-.5-.76-1.16-.76-2s.24-1.48.73-1.98c.52-.53,1.26-.79,2.21-.79.8,0,1.45.22,1.93.65.38.34.6.75.67,1.22h-.74c-.21-.83-.83-1.25-1.86-1.25-.72,0-1.27.21-1.66.62-.36.38-.54.89-.54,1.53s.19,1.18.58,1.57c.39.39.93.58,1.62.58,1.05,0,1.68-.47,1.9-1.41Z"/>
        <path class="cls-4" d="M70.27,131.05v-5.23h.74v1.2c.4-.9,1.07-1.36,2.02-1.36.15,0,.3.01.45.04v.76c-.23-.04-.46-.06-.68-.06-.48,0-.87.14-1.19.43-.4.36-.59.87-.59,1.55v2.66h-.74Z"/>
        <path class="cls-4" d="M78.54,129.38h.74c-.4,1.22-1.33,1.83-2.81,1.83-.98,0-1.72-.3-2.22-.9-.42-.5-.62-1.13-.62-1.87,0-.78.23-1.43.69-1.93.51-.56,1.23-.84,2.15-.84.82,0,1.48.19,1.98.58.64.5.96,1.29.96,2.37h-5.05c0,.56.18,1.03.55,1.39.39.39.9.58,1.55.58.6,0,1.07-.1,1.41-.3.31-.19.53-.5.66-.9ZM74.37,128.05h4.3c-.1-.6-.36-1.06-.78-1.37-.37-.27-.82-.4-1.37-.4s-.99.13-1.37.4c-.44.32-.7.77-.78,1.37Z"/>
        <path class="cls-4" d="M84.97,129.38h.74c-.4,1.22-1.33,1.83-2.81,1.83-.98,0-1.72-.3-2.22-.9-.42-.5-.62-1.13-.62-1.87,0-.78.23-1.43.69-1.93.51-.56,1.23-.84,2.15-.84.82,0,1.48.19,1.98.58.64.5.96,1.29.96,2.37h-5.05c0,.56.18,1.03.55,1.39.39.39.9.58,1.55.58.6,0,1.07-.1,1.41-.3.31-.19.53-.5.66-.9ZM80.8,128.05h4.3c-.1-.6-.36-1.06-.78-1.37-.37-.27-.82-.4-1.37-.4s-.99.13-1.37.4c-.44.32-.7.77-.78,1.37Z"/>
        <path class="cls-4" d="M91.12,131.05v-3.37c0-.93-.53-1.4-1.58-1.4-1.41,0-2.12.64-2.12,1.93v2.83h-.74v-5.23h.74v1.03h.02c.12-.31.37-.58.73-.8.42-.25.89-.38,1.43-.38,1.51,0,2.26.72,2.26,2.15v3.24h-.74Z"/>
        <path class="cls-4" d="M96.31,125.82v-1.65h.74v1.65h1.48v.56h-1.48v3.47c0,.24.05.41.16.51.1.1.3.15.59.15s.55-.02.73-.07v.63c-.28.04-.55.06-.81.06-.55,0-.93-.11-1.14-.33-.18-.19-.27-.51-.27-.97v-3.45h-1.14v-.56h1.14Z"/>
        <path class="cls-4" d="M98.75,128.43c0-.78.24-1.43.73-1.93.54-.56,1.28-.84,2.23-.84s1.7.28,2.24.84c.48.5.72,1.15.72,1.93s-.24,1.43-.72,1.93c-.54.56-1.29.84-2.24.84s-1.7-.28-2.23-.84c-.49-.5-.73-1.15-.73-1.93ZM99.5,128.43c0,.64.2,1.16.59,1.56.4.4.94.59,1.63.59s1.23-.2,1.63-.59c.4-.4.59-.91.59-1.56s-.2-1.16-.59-1.56c-.4-.4-.94-.59-1.63-.59s-1.23.2-1.63.59c-.4.4-.59.91-.59,1.56Z"/>
        <path class="cls-4" d="M108.44,131.05v-5.23h.74v1.2c.4-.9,1.07-1.36,2.02-1.36.15,0,.3.01.45.04v.76c-.23-.04-.46-.06-.68-.06-.48,0-.87.14-1.19.43-.4.36-.59.87-.59,1.55v2.66h-.74Z"/>
        <path class="cls-4" d="M116.71,129.38h.74c-.4,1.22-1.33,1.83-2.81,1.83-.98,0-1.72-.3-2.22-.9-.42-.5-.62-1.13-.62-1.87,0-.78.23-1.43.69-1.93.51-.56,1.23-.84,2.15-.84.82,0,1.48.19,1.98.58.64.5.96,1.29.96,2.37h-5.05c0,.56.18,1.03.55,1.39.39.39.9.58,1.55.58.6,0,1.07-.1,1.41-.3.31-.19.53-.5.66-.9ZM112.54,128.05h4.3c-.1-.6-.36-1.06-.78-1.37-.37-.27-.82-.4-1.37-.4s-.99.13-1.37.4c-.44.32-.7.77-.78,1.37Z"/>
        <path class="cls-4" d="M119.03,127.43h-.68c.06-.58.26-1.02.61-1.3.4-.31,1.03-.47,1.88-.47s1.47.13,1.85.39c.36.25.54.64.54,1.16v2.73c0,.39.14.58.41.58h.39v.49c-.27.05-.48.08-.62.08-.34,0-.56-.1-.68-.31-.07-.13-.11-.33-.12-.61h-.02c-.47.7-1.28,1.05-2.44,1.05-.53,0-.98-.11-1.35-.34-.46-.28-.68-.69-.68-1.23,0-.63.29-1.07.87-1.33.37-.17.95-.27,1.74-.32.79-.04,1.29-.1,1.5-.18.21-.08.31-.25.31-.51,0-.38-.13-.64-.4-.79-.27-.15-.71-.23-1.33-.23s-1.04.09-1.32.27c-.28.18-.44.47-.47.88ZM122.55,129.03v-.79c-.15.1-.4.17-.72.22-.22.03-.75.09-1.6.17-.91.09-1.37.41-1.37.96,0,.7.5,1.06,1.51,1.06.56,0,1.05-.13,1.47-.4.48-.31.71-.71.71-1.22Z"/>
        <path class="cls-4" d="M124.56,131.05v-7.24h.74v7.24h-.74Z"/>
        <path class="cls-4" d="M126.41,124.97h0c0-.21.17-.37.37-.37h0c.21,0,.37.17.37.37h0c0,.21-.17.37-.37.37h0c-.21,0-.37-.17-.37-.37ZM126.41,131.05v-5.23h.74v5.23h-.74Z"/>
        <path class="cls-4" d="M128.83,125.82v-1.65h.74v1.65h1.48v.56h-1.48v3.47c0,.24.05.41.16.51.1.1.3.15.59.15s.55-.02.73-.07v.63c-.28.04-.55.06-.81.06-.55,0-.93-.11-1.14-.33-.18-.19-.27-.51-.27-.97v-3.45h-1.14v-.56h1.14Z"/>
        <path class="cls-4" d="M134.37,130.17l1.97-4.35h.8l-2.83,6.2c-.19.42-.39.7-.6.84-.21.14-.52.22-.93.22-.33,0-.57,0-.71-.02v-.6h.53c.27,0,.49-.04.63-.13.15-.09.28-.26.4-.51l.34-.72-2.54-5.27h.8l2.13,4.35Z"/>
        <path class="cls-4" d="M137.11,130.49h0c0-.24.19-.43.43-.43h0c.24,0,.43.19.43.43h0c0,.24-.19.43-.43.43h0c-.24,0-.43-.19-.43-.43Z"/>
        <path class="cls-4" d="M0,139.52c0-1.21.4-2.15,1.19-2.83.72-.62,1.62-.93,2.71-.93s2,.31,2.71.93c.79.68,1.19,1.63,1.19,2.83s-.4,2.15-1.19,2.83c-.72.62-1.62.93-2.71.93s-2-.31-2.71-.93c-.79-.68-1.19-1.63-1.19-2.83ZM.8,139.52c0,1.01.32,1.8.95,2.35.56.49,1.28.73,2.14.73s1.58-.24,2.14-.73c.64-.56.95-1.34.95-2.35s-.32-1.8-.95-2.35c-.56-.49-1.28-.73-2.14-.73s-1.58.24-2.14.73c-.64.56-.95,1.34-.95,2.35Z"/>
        <path class="cls-4" d="M13.18,143.11v-3.37c0-.93-.53-1.4-1.58-1.4-1.41,0-2.12.64-2.12,1.93v2.83h-.74v-5.23h.74v1.03h.02c.12-.31.37-.58.73-.8.42-.25.89-.38,1.43-.38,1.51,0,2.26.72,2.26,2.15v3.24h-.74Z"/>
        <path class="cls-4" d="M26.03,143.11v-3.32c0-.96-.52-1.45-1.56-1.45-.56,0-1,.15-1.31.45s-.47.71-.47,1.23v3.09h-.74v-3.54c0-.36-.12-.64-.36-.86-.27-.24-.64-.36-1.13-.36-.55,0-.99.15-1.33.45-.35.33-.52.78-.52,1.37v2.94h-.74v-5.23h.74v.96h.02c.42-.75,1.11-1.13,2.07-1.13.54,0,.97.12,1.32.37.28.21.47.47.55.77.14-.29.38-.55.72-.77.4-.25.84-.37,1.33-.37.71,0,1.25.17,1.63.5.35.32.52.76.52,1.32v3.57h-.74Z"/>
        <path class="cls-4" d="M27.63,140.49c0-.78.24-1.43.73-1.93.54-.56,1.28-.84,2.23-.84s1.7.28,2.24.84c.48.5.72,1.15.72,1.93s-.24,1.43-.72,1.93c-.54.56-1.29.84-2.24.84s-1.7-.28-2.23-.84c-.49-.5-.73-1.15-.73-1.93ZM28.38,140.49c0,.64.2,1.16.59,1.56.4.4.94.59,1.63.59s1.23-.2,1.63-.59c.4-.4.59-.91.59-1.56s-.2-1.16-.59-1.56c-.4-.4-.94-.59-1.63-.59s-1.23.2-1.63.59c-.4.4-.59.91-.59,1.56Z"/>
        <path class="cls-4" d="M34.46,143.11v-7.24h.74v3.06c.18-.35.46-.63.83-.85.4-.23.83-.35,1.31-.35.93,0,1.65.28,2.16.84.46.5.7,1.15.7,1.93s-.21,1.37-.63,1.87c-.5.6-1.25.9-2.23.9-.57,0-1.06-.15-1.47-.44-.31-.21-.53-.47-.67-.76v1.05h-.74ZM35.16,140.49c0,.66.21,1.19.63,1.59.4.38.92.56,1.56.56.7,0,1.24-.23,1.62-.68.32-.39.48-.88.48-1.47,0-.65-.2-1.18-.61-1.58-.39-.38-.88-.57-1.49-.57-.71,0-1.27.22-1.67.67-.35.4-.52.89-.52,1.48Z"/>
        <path class="cls-4" d="M41.1,137.03h0c0-.21.17-.37.37-.37h0c.21,0,.37.17.37.37h0c0,.21-.17.37-.37.37h0c-.21,0-.37-.17-.37-.37ZM41.1,143.11v-5.23h.74v5.23h-.74Z"/>
        <path class="cls-4" d="M42.94,143.11v-7.24h.74v7.24h-.74Z"/>
        <path class="cls-4" d="M49.51,141.44h.74c-.4,1.22-1.33,1.83-2.81,1.83-.98,0-1.72-.3-2.22-.9-.42-.5-.62-1.13-.62-1.87,0-.78.23-1.43.69-1.93.51-.56,1.23-.84,2.15-.84.82,0,1.48.19,1.98.58.64.5.96,1.29.96,2.37h-5.05c0,.56.18,1.03.55,1.39.39.39.9.58,1.55.58.6,0,1.07-.1,1.41-.3.31-.19.53-.5.66-.9ZM45.34,140.11h4.3c-.1-.6-.36-1.06-.78-1.37-.37-.27-.82-.4-1.37-.4s-.99.13-1.37.4c-.44.32-.7.77-.78,1.37Z"/>
        <path class="cls-4" d="M58.9,143.11v-1.05c-.13.29-.36.55-.67.76-.42.29-.91.44-1.47.44-.98,0-1.73-.3-2.23-.9-.42-.5-.63-1.13-.63-1.87,0-.78.23-1.43.7-1.93.51-.56,1.23-.84,2.16-.84.48,0,.91.12,1.31.35.37.22.65.51.83.85v-3.06h.74v7.24h-.74ZM58.94,140.49c0-.59-.17-1.08-.52-1.48-.4-.45-.96-.67-1.67-.67-.6,0-1.1.19-1.49.57-.41.4-.61.93-.61,1.58,0,.59.16,1.08.48,1.47.38.46.91.68,1.62.68.64,0,1.16-.19,1.57-.58.41-.39.62-.91.62-1.57Z"/>
        <path class="cls-4" d="M65.45,141.44h.74c-.4,1.22-1.33,1.83-2.81,1.83-.98,0-1.72-.3-2.22-.9-.42-.5-.62-1.13-.62-1.87,0-.78.23-1.43.69-1.93.51-.56,1.23-.84,2.15-.84.82,0,1.48.19,1.98.58.64.5.96,1.29.96,2.37h-5.05c0,.56.18,1.03.55,1.39.39.39.9.58,1.55.58.6,0,1.07-.1,1.41-.3.31-.19.53-.5.66-.9ZM61.28,140.11h4.3c-.1-.6-.36-1.06-.78-1.37-.37-.27-.82-.4-1.37-.4s-.99.13-1.37.4c-.44.32-.7.77-.78,1.37Z"/>
        <path class="cls-4" d="M69.19,142.25l2.05-4.37h.8l-2.45,5.23h-.8l-2.45-5.23h.8l2.05,4.37Z"/>
        <path class="cls-4" d="M72.58,137.03h0c0-.21.17-.37.37-.37h0c.21,0,.37.17.37.37h0c0,.21-.17.37-.37.37h0c-.21,0-.37-.17-.37-.37ZM72.58,143.11v-5.23h.74v5.23h-.74Z"/>
        <path class="cls-4" d="M79.03,141.24h.74c-.1.5-.32.92-.66,1.27-.48.51-1.14.76-1.98.76-.92,0-1.65-.26-2.18-.77-.51-.5-.76-1.16-.76-2s.24-1.48.73-1.98c.52-.53,1.26-.79,2.21-.79.8,0,1.45.22,1.93.65.38.34.6.75.67,1.22h-.74c-.21-.83-.83-1.25-1.86-1.25-.72,0-1.27.21-1.66.62-.36.38-.54.89-.54,1.53s.19,1.18.58,1.57c.39.39.93.58,1.62.58,1.05,0,1.68-.47,1.9-1.41Z"/>
        <path class="cls-4" d="M85.27,141.44h.74c-.4,1.22-1.33,1.83-2.81,1.83-.98,0-1.72-.3-2.22-.9-.42-.5-.62-1.13-.62-1.87,0-.78.23-1.43.69-1.93.51-.56,1.23-.84,2.15-.84.82,0,1.48.19,1.98.58.64.5.96,1.29.96,2.37h-5.05c0,.56.18,1.03.55,1.39.39.39.9.58,1.55.58.6,0,1.07-.1,1.41-.3.31-.19.53-.5.66-.9ZM81.1,140.11h4.3c-.1-.6-.36-1.06-.78-1.37-.37-.27-.82-.4-1.37-.4s-.99.13-1.37.4c-.44.32-.7.77-.78,1.37Z"/>
        <path class="cls-4" d="M91.56,139.43h-.68c-.09-.41-.28-.7-.56-.86-.26-.15-.67-.22-1.24-.22-1.01,0-1.51.3-1.51.89,0,.27.12.45.37.55.23.1.75.2,1.57.31.84.11,1.42.26,1.73.45.36.21.53.57.53,1.06,0,.52-.21.93-.63,1.22s-1.04.44-1.85.44c-1.76,0-2.64-.6-2.64-1.8h.68c.07.44.24.74.53.91.28.17.76.26,1.43.26,1.16,0,1.74-.33,1.74-1,0-.27-.13-.47-.39-.59-.28-.13-.82-.24-1.61-.32-.81-.08-1.38-.23-1.71-.45-.33-.22-.49-.56-.49-1.02s.18-.84.55-1.12c.4-.29.96-.43,1.7-.43,1.56,0,2.39.57,2.48,1.71Z"/>
        <path class="cls-4" d="M101.25,142.13l1.68-4.25h.8l-2.12,5.23h-.8l-1.58-4.18-1.56,4.18h-.8l-2.07-5.23h.8l1.66,4.28,1.58-4.28h.8l1.61,4.25Z"/>
        <path class="cls-4" d="M104.29,137.03h0c0-.21.17-.37.37-.37h0c.21,0,.37.17.37.37h0c0,.21-.17.37-.37.37h0c-.21,0-.37-.17-.37-.37ZM104.29,143.11v-5.23h.74v5.23h-.74Z"/>
        <path class="cls-4" d="M106.71,137.88v-1.65h.74v1.65h1.48v.56h-1.48v3.47c0,.24.05.41.16.51.1.1.3.15.59.15s.55-.02.73-.07v.63c-.28.04-.55.06-.81.06-.55,0-.93-.11-1.14-.33-.18-.19-.27-.51-.27-.97v-3.45h-1.14v-.56h1.14Z"/>
        <path class="cls-4" d="M109.61,143.11v-7.24h.74v3.04c.12-.31.37-.58.74-.8.42-.25.9-.38,1.43-.38,1.51,0,2.27.72,2.27,2.15v3.24h-.74v-3.37c0-.93-.53-1.4-1.58-1.4-1.41,0-2.12.64-2.12,1.93v2.83h-.74Z"/>
        <path class="cls-4" d="M119.38,139.49h-.68c.06-.58.26-1.02.61-1.3.4-.31,1.03-.47,1.88-.47s1.47.13,1.85.39c.36.25.54.64.54,1.16v2.73c0,.39.14.58.41.58h.39v.49c-.27.05-.48.08-.62.08-.34,0-.56-.1-.68-.31-.07-.13-.11-.33-.12-.61h-.02c-.47.7-1.28,1.05-2.44,1.05-.53,0-.98-.11-1.35-.34-.46-.28-.68-.69-.68-1.23,0-.63.29-1.07.87-1.33.37-.17.95-.27,1.74-.32.79-.04,1.29-.1,1.5-.18.21-.08.31-.25.31-.51,0-.38-.13-.64-.4-.79-.27-.15-.71-.23-1.33-.23s-1.04.09-1.32.27c-.28.18-.44.47-.47.88ZM122.9,141.09v-.79c-.15.1-.4.17-.72.22-.22.03-.75.09-1.6.17-.91.09-1.37.41-1.37.96,0,.7.5,1.06,1.51,1.06.56,0,1.05-.13,1.47-.4.48-.31.71-.71.71-1.22Z"/>
        <path class="cls-4" d="M132.25,141.24h.74c-.1.5-.32.92-.66,1.27-.48.51-1.14.76-1.98.76-.92,0-1.65-.26-2.18-.77-.51-.5-.76-1.16-.76-2s.24-1.48.73-1.98c.52-.53,1.26-.79,2.21-.79.8,0,1.45.22,1.93.65.38.34.6.75.67,1.22h-.74c-.21-.83-.83-1.25-1.86-1.25-.72,0-1.27.21-1.66.62-.36.38-.54.89-.54,1.53s.19,1.18.58,1.57c.39.39.93.58,1.62.58,1.05,0,1.68-.47,1.9-1.41Z"/>
        <path class="cls-4" d="M134.45,139.49h-.68c.06-.58.26-1.02.61-1.3.4-.31,1.03-.47,1.88-.47s1.47.13,1.85.39c.36.25.54.64.54,1.16v2.73c0,.39.14.58.41.58h.39v.49c-.27.05-.48.08-.62.08-.34,0-.56-.1-.68-.31-.07-.13-.11-.33-.12-.61h-.02c-.47.7-1.28,1.05-2.44,1.05-.53,0-.98-.11-1.35-.34-.46-.28-.68-.69-.68-1.23,0-.63.29-1.07.87-1.33.37-.17.95-.27,1.74-.32.79-.04,1.29-.1,1.5-.18.21-.08.31-.25.31-.51,0-.38-.13-.64-.4-.79-.27-.15-.71-.23-1.33-.23s-1.04.09-1.32.27c-.28.18-.44.47-.47.88ZM137.97,141.09v-.79c-.15.1-.4.17-.72.22-.22.03-.75.09-1.6.17-.91.09-1.37.41-1.37.96,0,.7.5,1.06,1.51,1.06.56,0,1.05-.13,1.47-.4.48-.31.71-.71.71-1.22Z"/>
        <path class="cls-4" d="M148.15,143.11v-3.32c0-.96-.52-1.45-1.56-1.45-.56,0-1,.15-1.31.45s-.47.71-.47,1.23v3.09h-.74v-3.54c0-.36-.12-.64-.36-.86-.27-.24-.64-.36-1.13-.36-.55,0-.99.15-1.33.45-.35.33-.52.78-.52,1.37v2.94h-.74v-5.23h.74v.96h.02c.42-.75,1.11-1.13,2.07-1.13.54,0,.97.12,1.32.37.28.21.47.47.55.77.14-.29.38-.55.72-.77.4-.25.84-.37,1.33-.37.71,0,1.25.17,1.63.5.35.32.52.76.52,1.32v3.57h-.74Z"/>
        <path class="cls-4" d="M154.69,141.44h.74c-.4,1.22-1.33,1.83-2.81,1.83-.98,0-1.72-.3-2.22-.9-.42-.5-.62-1.13-.62-1.87,0-.78.23-1.43.69-1.93.51-.56,1.23-.84,2.15-.84.82,0,1.48.19,1.98.58.64.5.96,1.29.96,2.37h-5.05c0,.56.18,1.03.55,1.39.39.39.9.58,1.55.58.6,0,1.07-.1,1.41-.3.31-.19.53-.5.66-.9ZM150.52,140.11h4.3c-.1-.6-.36-1.06-.78-1.37-.37-.27-.82-.4-1.37-.4s-.99.13-1.37.4c-.44.32-.7.77-.78,1.37Z"/>
        <path class="cls-4" d="M156.39,143.11v-5.23h.74v1.2c.4-.9,1.07-1.36,2.02-1.36.15,0,.3.01.45.04v.76c-.23-.04-.46-.06-.68-.06-.48,0-.87.14-1.19.43-.4.36-.59.87-.59,1.55v2.66h-.74Z"/>
        <path class="cls-4" d="M160.7,139.49h-.68c.06-.58.26-1.02.61-1.3.4-.31,1.03-.47,1.88-.47s1.47.13,1.85.39c.36.25.54.64.54,1.16v2.73c0,.39.14.58.41.58h.39v.49c-.27.05-.48.08-.62.08-.34,0-.56-.1-.68-.31-.07-.13-.11-.33-.12-.61h-.02c-.47.7-1.28,1.05-2.44,1.05-.53,0-.98-.11-1.35-.34-.46-.28-.68-.69-.68-1.23,0-.63.29-1.07.87-1.33.37-.17.95-.27,1.74-.32.79-.04,1.29-.1,1.5-.18.21-.08.31-.25.31-.51,0-.38-.13-.64-.4-.79-.27-.15-.71-.23-1.33-.23s-1.04.09-1.32.27c-.28.18-.44.47-.47.88ZM164.22,141.09v-.79c-.15.1-.4.17-.72.22-.22.03-.75.09-1.6.17-.91.09-1.37.41-1.37.96,0,.7.5,1.06,1.51,1.06.56,0,1.05-.13,1.47-.4.48-.31.71-.71.71-1.22Z"/>
        <path class="cls-4" d="M166.54,142.55h0c0-.24.19-.43.43-.43h0c.24,0,.43.19.43.43h0c0,.24-.19.43-.43.43h0c-.24,0-.43-.19-.43-.43Z"/>
      </g>
      <g class="cls-5">
        <path class="cls-2" d="M101.47,102.92c-.25-2.41-2.01-4.62-5-6.36-.25-.14-.56-.06-.7.19-.14.25-.06.56.19.7,2.88,1.64,4.49,3.78,4.49,6.01,0,4.32-6.08,8.08-14.13,8.74-.29.03-.51.29-.48.56.03.27.25.48.51.48h.05c4.11-.35,7.88-1.5,10.66-3.22,2.63-1.66,4.19-3.76,4.43-5.99l-.02-1.12Z"/>
        <path class="cls-4" d="M81.25,115.41l2.74-2.1s.02-.02.03-.03c0,0,.02,0,.02-.02.02-.02.03-.03.03-.05.02-.03.02-.05.03-.06t.03-.05v-.02s.02-.03.02-.03v-.02s.02-.03.02-.03v-.29s0-.03-.02-.03v-.02s-.02-.03-.02-.03v-.02s-.02-.03-.02-.03c0,0,0-.02-.02-.02-.02-.02-.02-.03-.03-.03-.02-.02-.03-.03-.03-.05,0,0-.02,0-.02-.02t-.03-.03l-2.74-2.1c-.24-.18-.54-.13-.73.1-.18.24-.13.54.1.73l1.48,1.13c-3.93-.19-7.58-1.12-10.39-2.64-3.09-1.67-4.78-3.87-4.78-6.18s1.59-4.35,4.49-6.01c.25-.14.33-.46.19-.7-.14-.25-.46-.35-.7-.19-3.23,1.85-5,4.3-5,6.91s1.9,5.22,5.34,7.09c2.98,1.61,6.83,2.58,10.97,2.77l-1.56,1.21c-.24.18-.27.51-.1.73.06.1.14.14.24.18h.35s.05-.03.1-.06"/>
        <path class="cls-4" d="M94.44,91.45s-.02-.03-.02-.03c0-.02-.02-.02-.02-.03s-.02-.03-.02-.03c0-.02-.02-.02-.02-.03s-.02-.02-.02-.03-.02-.02-.02-.03t-.03-.03s-.02-.02-.03-.02l-.03-.03s-.02-.02-.03-.02c0,0-.02,0-.02-.02,0,0-.02,0-.02-.02,0,0-.02,0-.02-.02l-10.27-5.18c-.16-.08-.33-.08-.48,0l-1.21.62v-.02l-3.98,2.04.02.03-5.03,2.56s-.02,0-.02.02c0,0-.02,0-.02.02,0,0-.02,0-.02.02-.02,0-.02.02-.03.02s-.02.02-.03.03c-.02,0-.02.02-.03.02l-.03.03s-.02.02-.02.03t-.02.03s-.02.02-.02.03-.02.03-.02.03c0,.02-.02.02-.02.03s-.02.03-.02.03t-.02.03s0,.03-.02.05v3.35h-.02v8.47c0,.21.11.38.29.48l10.26,5.22s.02,0,.02.02t.03.02s.03.02.05.02.02,0,.03.02c.02,0,.03,0,.05.02h.16s.03,0,.05-.02t.03-.02s.03-.02.05-.02.02,0,.03-.02c0,0,.02,0,.02-.02l10.26-5.22c.18-.1.29-.27.29-.48v-2.1s0-.08-.02-.13v-1.85s.02-.08.02-.13v-7.69s0-.03-.02-.05t-.03-.02M83.15,107.83l-9.22-4.71v-3.7h.02v-6.88l9.21,4.68v10.61ZM83.69,96.29l-8.54-4.35-.56-.3,6.01-3.06s.1-.06.14-.11l1.59-.81s.06-.02.1-.03l1.24-.62,9.11,4.64-.56.3-8.54,4.35ZM84.23,107.78v-10.62l9.21-4.68v5.4h-.03v4.48h.03v.75l-9.21,4.68Z"/>
      </g>
    </g>
  </g>
</svg>