<?xml version="1.0" encoding="UTF-8"?>
<svg id="Layer_1" xmlns="http://www.w3.org/2000/svg" xmlns:xlink="http://www.w3.org/1999/xlink" version="1.1" viewBox="0 0 482 455.1">
  <!-- Generator: Adobe Illustrator 29.2.1, SVG Export Plug-In . SVG Version: 2.1.0 Build 116)  -->
  <defs>
    <style>
      .st0 {
        isolation: isolate;
      }

      .st1 {
        fill: red;
      }
    </style>
  </defs>
  <g class="st0">
    <g class="st0">
      <path class="st1" d="M5.7,62.4h31.9l44.3,108.7,43.3-108.7h30.8l-59.7,135.7h-30.2L5.7,62.4Z"/>
      <path class="st1" d="M177.4,62.7h0c7.2,0,13.1,5.9,13.1,13.1h0c0,7.2-5.9,13.1-13.1,13.1h0c-7.2,0-13.1-5.9-13.1-13.1h0c0-7.2,5.9-13.1,13.1-13.1ZM164.3,97.4h26.2v100.7h-26.2v-100.7Z"/>
      <path class="st1" d="M212.6,60.1h26.2v51.7h.4c7.8-12.2,22.8-17.1,38.6-17.1,38.4,0,55.1,27.9,55.1,53.4s-16.7,53.8-55.1,53.8-36.7-11.6-38.6-17.7h-.4v13.9h-26.2V60.1ZM237.7,148.1c0,17.1,9.3,33.6,33.8,33.6s34-16.5,34-33.6-9.3-33.2-34-33.2-33.8,16.5-33.8,33.2Z"/>
      <path class="st1" d="M373.9,154.4c.6,11.2,8.2,28.5,34.2,28.5s24.9-6.1,30-14.4h28.5c-5.7,11.2-19.4,33.4-57.8,33.4s-62.3-26.4-62.3-53.2,24.9-55.1,60.6-55.1,61.8,27.5,61.8,57v3.8h-95ZM441.5,137.6c-3.2-20.1-21.1-26.2-34-26.2s-29.3,5.7-33.6,26.2h67.6Z"/>
      <path class="st1" d="M107.5,242.4h28.5v76.6c0,18.8.8,41.6,37.8,41.6s38-22.8,38-41.6v-76.6h28.5v77.3c0,22.4-.8,62.1-66.5,62.1s-66.3-39.7-66.3-62.1v-77.3Z"/>
      <path class="st1" d="M263.7,277.4h26.2v14.4h.4c7.8-12.2,22.8-17.1,38.6-17.1,38.4,0,55.1,27.9,55.1,53.4s-16.7,53.8-55.1,53.8-36.7-11.6-38.6-17.7h-.4v52.3h-26.2v-139.1ZM288.8,328.1c0,17.1,9.3,33.6,33.8,33.6s34-16.5,34-33.6-9.3-33.2-34-33.2-33.8,16.5-33.8,33.2Z"/>
    </g>
  </g>
</svg>