<?xml version="1.0" encoding="UTF-8"?>
<svg id="Layer_1" xmlns="http://www.w3.org/2000/svg" xmlns:xlink="http://www.w3.org/1999/xlink" version="1.1" viewBox="0 0 482 455.1">
  <!-- Generator: Adobe Illustrator 29.2.1, SVG Export Plug-In . SVG Version: 2.1.0 Build 116)  -->
  <defs>
    <style>
      .st0 {
        fill: #f90000;
      }
    </style>
  </defs>
  <g>
    <path class="st0" d="M155.4,121.2v-22.8l-32.1-49.5h27.9l16.2,30.7,16.2-30.7h27.9l-32.1,49.5v22.8h-24.1Z"/>
    <path class="st0" d="M205.9,93.8c0-9.7,3.3-17,9.9-22.1,6.6-5.1,16.1-7.6,28.6-7.6s21.9,2.5,28.6,7.6c6.6,5.1,9.9,12.4,9.9,22.1s-3.3,17-9.9,22.1c-6.6,5.1-16.1,7.6-28.6,7.6s-21.9-2.5-28.6-7.6c-6.6-5.1-9.9-12.4-9.9-22.1ZM244.3,78.3c-4.9,0-8.8,1.3-11.6,3.9-2.8,2.6-4.2,6.5-4.2,11.5s1.4,8.9,4.2,11.5c2.8,2.6,6.7,3.9,11.6,3.9s8.9-1.3,11.6-3.9c2.8-2.6,4.2-6.5,4.2-11.5s-1.4-8.9-4.2-11.5c-2.8-2.6-6.6-3.9-11.6-3.9Z"/>
    <path class="st0" d="M291.2,101.3v-34.9h21.5v28.4c0,8.4,3.7,12.6,11.1,12.6s7.2-1.1,9.7-3.3c2.5-2.2,3.7-5.5,3.7-9.8v-27.7h21.5v54.9h-20.9v-7.1h-.2c-5.1,6.2-12.8,9.3-23.1,9.3-15.5,0-23.3-7.4-23.3-22.2Z"/>
    <path class="st0" d="M162.6,214.9v-72.3h52.2c23,0,34.4,12,34.4,36.1s-12.5,36.1-37.6,36.1h-49.1ZM186.7,158.8v39.9h20.2c11.7,0,17.5-6.7,17.5-20s-6.5-19.8-19.4-19.8h-18.2Z"/>
    <path class="st0" d="M255.6,187.5c0-9.7,3.3-17,9.9-22.1,6.6-5.1,16.1-7.6,28.6-7.6s21.9,2.5,28.6,7.6,9.9,12.4,9.9,22.1-3.3,17-9.9,22.1-16.1,7.6-28.6,7.6-21.9-2.5-28.6-7.6c-6.6-5.1-9.9-12.4-9.9-22.1ZM294.1,172c-4.9,0-8.8,1.3-11.6,3.9-2.8,2.6-4.2,6.5-4.2,11.5s1.4,8.9,4.2,11.5c2.8,2.6,6.7,3.9,11.6,3.9s8.9-1.3,11.6-3.9,4.2-6.5,4.2-11.5-1.4-8.9-4.2-11.5c-2.8-2.6-6.6-3.9-11.6-3.9Z"/>
    <path class="st0" d="M155.4,308.6v-22.8l-32.1-49.5h27.9l16.2,30.7,16.2-30.7h27.9l-32.1,49.5v22.8h-24.1Z"/>
    <path class="st0" d="M205.9,281.2c0-9.7,3.3-17,9.9-22.1,6.6-5.1,16.1-7.6,28.6-7.6s21.9,2.5,28.6,7.6c6.6,5.1,9.9,12.4,9.9,22.1s-3.3,17-9.9,22.1c-6.6,5.1-16.1,7.6-28.6,7.6s-21.9-2.5-28.6-7.6c-6.6-5.1-9.9-12.4-9.9-22.1ZM244.3,265.7c-4.9,0-8.8,1.3-11.6,3.9-2.8,2.6-4.2,6.5-4.2,11.5s1.4,8.9,4.2,11.5c2.8,2.6,6.7,3.9,11.6,3.9s8.9-1.3,11.6-3.9c2.8-2.6,4.2-6.5,4.2-11.5s-1.4-8.9-4.2-11.5c-2.8-2.6-6.6-3.9-11.6-3.9Z"/>
    <path class="st0" d="M291.2,288.7v-34.9h21.5v28.4c0,8.4,3.7,12.6,11.1,12.6s7.2-1.1,9.7-3.3c2.5-2.2,3.7-5.5,3.7-9.8v-27.7h21.5v54.9h-20.9v-7.1h-.2c-5.1,6.2-12.8,9.3-23.1,9.3-15.5,0-23.3-7.4-23.3-22.2Z"/>
  </g>
  <g>
    <path class="st0" d="M48.7,375.9v-1.2h9.5c0,2.3.2,3.8.7,4.7.5,1,1.6,1.5,3.2,1.5s2.7-.5,3.3-1.4c.5-.7.7-2,.7-3.8v-18.1h9.5v18.6c0,3.3-.8,5.8-2.3,7.5-2,2.2-5.5,3.3-10.6,3.3s-8-.7-10.2-2.2c-2.6-1.7-3.9-4.7-3.9-9Z"/>
    <path class="st0" d="M79,375.3c0-3.8,1.3-6.7,3.9-8.7,2.6-2,6.4-3,11.3-3s8.7,1,11.3,3c2.6,2,3.9,4.9,3.9,8.7s-1.3,6.7-3.9,8.7c-2.6,2-6.4,3-11.3,3s-8.7-1-11.3-3c-2.6-2-3.9-4.9-3.9-8.7ZM94.2,369.2c-1.9,0-3.5.5-4.6,1.6-1.1,1-1.7,2.6-1.7,4.6s.6,3.5,1.7,4.6c1.1,1,2.6,1.6,4.6,1.6s3.5-.5,4.6-1.6c1.1-1,1.6-2.6,1.6-4.6s-.5-3.5-1.6-4.6c-1.1-1-2.6-1.6-4.6-1.6Z"/>
    <path class="st0" d="M111.4,386.2v-5.1l13-10.6h-12.4v-5.9h23.8v5.1l-12.6,10.6h13v5.9h-24.9Z"/>
    <path class="st0" d="M174.8,386.2v-2.6h0c-1.9,2.3-4.6,3.4-8.2,3.4s-7-1-9.2-3.1c-2.3-2.1-3.5-5-3.5-8.7s1.1-5.9,3.3-8c2.3-2.2,5.4-3.3,9.3-3.3s6.6,1.1,8.1,3.3v-10.3h8.5v29.2h-8.2ZM174.6,375.4c0-1.7-.5-3.1-1.6-4s-2.5-1.5-4.5-1.5c-4,0-6,1.8-6,5.5s2,5.5,6,5.5,3.4-.5,4.5-1.5,1.6-2.3,1.6-4Z"/>
    <path class="st0" d="M186.3,375.3c0-3.8,1.3-6.7,3.9-8.7,2.6-2,6.4-3,11.3-3s8.7,1,11.3,3c2.6,2,3.9,4.9,3.9,8.7s-1.3,6.7-3.9,8.7c-2.6,2-6.4,3-11.3,3s-8.7-1-11.3-3c-2.6-2-3.9-4.9-3.9-8.7ZM201.5,369.2c-1.9,0-3.5.5-4.6,1.6-1.1,1-1.7,2.6-1.7,4.6s.6,3.5,1.7,4.6c1.1,1,2.6,1.6,4.6,1.6s3.5-.5,4.6-1.6c1.1-1,1.6-2.6,1.6-4.6s-.5-3.5-1.6-4.6c-1.1-1-2.6-1.6-4.6-1.6Z"/>
    <path class="st0" d="M239.7,379.7h9c-.6,2.1-2,3.7-4.1,5-2.6,1.5-6,2.3-10.3,2.3-10.1,0-15.2-3.9-15.2-11.8s1.4-6.7,4.1-8.7c2.6-2,6.2-3,10.8-3s8.4,1.1,11,3.2c2.7,2.2,4,5.5,4,9.9v.6h-21.3c.5,3.2,2.8,4.8,6.8,4.8s3.8-.8,5.1-2.4ZM227.8,372.9h12.6c-.6-3-2.7-4.4-6.3-4.4s-5.7,1.5-6.3,4.4Z"/>
    <path class="st0" d="M251.4,379.4h9.8c.2,1.7,1.9,2.5,5,2.5s3.9-.6,3.9-1.9-.2-1-.6-1.2-1.2-.4-2.3-.5l-7.6-.9c-5-.6-7.5-2.6-7.5-6s1.2-4.8,3.5-6.1c2.1-1.1,5.3-1.6,9.6-1.6,8.6,0,13.1,2.4,13.5,7.2h-9.5c-.1-1.5-1.7-2.3-4.6-2.3s-3.9.7-3.9,2,.9,1.3,2.7,1.5l7.3.8c3,.3,5.2,1,6.6,2,1.4,1,2.1,2.6,2.1,4.7,0,5-4.6,7.5-13.9,7.5s-14.2-2.5-14.3-7.6Z"/>
    <path class="st0" d="M295.1,386.2l12.4-28.6h11.6l12.3,28.6h-10.2l-1.7-4.6h-12.5l-1.7,4.6h-10.2ZM317.3,375.6l-4-10.8h0l-4,10.8h8Z"/>
    <path class="st0" d="M333.3,386.2v-28.6h9.5v28.6h-9.5Z"/>
    <path class="st0" d="M363.8,376.1v-18.5h9.5v16.9c0,2.2.5,3.8,1.6,4.8,1,.9,2.6,1.3,4.9,1.3s3.9-.4,4.9-1.3c1.1-1,1.6-2.6,1.6-4.8v-16.9h9.5v18.5c0,7.3-5.3,11-16,11s-16-3.7-16-11Z"/>
    <path class="st0" d="M397.6,386.2l12.4-14.8-11.1-13.7h11.3l5.2,7.7,5.2-7.7h11.3l-11.1,13.7,12.4,14.8h-11.8l-6.1-8.6-6.1,8.6h-11.8Z"/>
  </g>
</svg>